<svg width="156" height="88" viewBox="0 0 156 88" fill="none" xmlns="http://www.w3.org/2000/svg">
<rect x="0.5" width="155" height="88" rx="8" fill="white"/>
<path d="M47.1435 42.4174V52.8455C47.1435 53.0146 47.0764 53.1767 46.9569 53.2962C46.8374 53.4157 46.6753 53.4829 46.5063 53.4829H43.2154C43.0464 53.4828 42.8844 53.4156 42.7649 53.2961C42.6454 53.1766 42.5783 53.0146 42.5782 52.8455V35.8837C42.5782 35.7147 42.6453 35.5526 42.7648 35.433C42.8843 35.3135 43.0464 35.2464 43.2154 35.2464H46.2608C46.4298 35.2464 46.5918 35.3135 46.7113 35.433C46.8308 35.5526 46.8979 35.7147 46.8979 35.8837V38.2724C46.8979 38.2724 47.9866 34.865 51.2174 34.865C51.2174 34.865 54.4131 34.4786 55.7125 38.0265C55.7125 38.0265 56.8011 34.865 60.1022 34.865C60.1022 34.865 65.0113 34.573 65.0113 39.6542L65.0487 42.4526V52.8807C65.0487 53.0497 64.9816 53.2118 64.8621 53.3313C64.7426 53.4509 64.5805 53.518 64.4115 53.518H61.1203C60.9513 53.5179 60.7893 53.4508 60.6698 53.3313C60.5504 53.2118 60.4832 53.0497 60.4831 52.8807L60.4531 41.5041C60.5466 38.928 58.4632 39.1154 58.4632 39.1154C55.8411 39.1624 56.0934 42.4526 56.0934 42.4526V52.8807C56.0934 53.0497 56.0263 53.2118 55.9068 53.3313C55.7873 53.4509 55.6252 53.518 55.4563 53.518H52.1653C51.9963 53.5179 51.8343 53.4508 51.7148 53.3313C51.5954 53.2118 51.5282 53.0497 51.5281 52.8807V41.7615C51.5281 41.7615 51.7206 39.0918 49.3792 39.0918C49.3795 39.0918 47.0617 38.7875 47.1435 42.4174V42.4174ZM131.975 42.3862V52.8141C131.975 52.9831 131.908 53.1452 131.788 53.2647C131.669 53.3842 131.507 53.4513 131.338 53.4514L127.915 53.5177C127.746 53.5177 127.584 53.4505 127.465 53.331C127.345 53.2115 127.278 53.0494 127.278 52.8804V41.7615C127.278 41.7615 127.47 39.0918 125.129 39.0918C125.129 39.0918 122.893 38.9817 122.893 43.1675V52.8453C122.893 53.0143 122.826 53.1763 122.707 53.2959C122.587 53.4154 122.425 53.4825 122.256 53.4826H118.965C118.796 53.4825 118.634 53.4154 118.514 53.2959C118.395 53.1763 118.328 53.0143 118.328 52.8453V35.8837C118.328 35.7147 118.395 35.5526 118.514 35.4331C118.634 35.3136 118.796 35.2464 118.965 35.2464H122.01C122.179 35.2464 122.341 35.3135 122.461 35.433C122.58 35.5526 122.647 35.7147 122.647 35.8837V38.2724C122.647 38.2724 123.736 34.865 126.967 34.865C126.967 34.865 130.428 34.3398 131.593 37.9605C131.594 37.9602 131.975 38.7071 131.975 42.3862ZM108.213 34.7948C104.005 34.7948 100.593 38.3426 100.593 44.3143C100.593 49.5719 103.226 53.8339 108.213 53.8339C112.919 53.8339 115.834 49.5719 115.834 44.3143C115.834 38.448 112.422 34.7948 108.213 34.7948V34.7948ZM110.869 44.5251C110.869 46.7733 110.588 47.9676 110.588 47.9676C110.189 50.3442 108.464 50.3475 108.21 50.3349C107.935 50.3459 106.196 50.3211 105.836 47.9676C105.836 47.9676 105.555 46.7733 105.555 44.5251V44.1505C105.555 41.9023 105.836 40.708 105.836 40.708C106.196 38.3544 107.935 38.3297 108.21 38.3404C108.464 38.3277 110.189 38.3308 110.588 40.708C110.588 40.708 110.869 41.9023 110.869 44.1505V44.5251ZM98.6824 38.2488V35.8151C98.6823 35.6461 98.6152 35.4841 98.4957 35.3645C98.3762 35.245 98.2142 35.1779 98.0452 35.1778H87.1672C86.9982 35.1778 86.8361 35.2449 86.7166 35.3645C86.5971 35.484 86.53 35.6461 86.53 35.8151V38.2299C86.5301 38.399 86.5972 38.561 86.7167 38.6805C86.8362 38.8001 86.9982 38.8672 87.1672 38.8673H92.8413L86.1252 48.6131C86.1252 48.6131 85.8605 49.0082 85.8692 49.4446V52.4091C85.8692 52.4091 85.8254 53.4256 86.9778 52.8357C86.9778 52.8357 89.0248 51.5987 92.457 51.5987C92.457 51.5987 95.8466 51.5565 98.1065 52.9422C98.1065 52.9422 99.0445 53.3688 99.0445 52.4308V49.8504C99.0445 49.8504 99.1296 49.1675 98.2343 48.7412C98.2343 48.7412 95.6333 47.3125 92.2224 47.5469L98.6824 38.2488ZM40.0382 50.4496L39.008 48.8809C38.6801 48.2953 38.7037 47.6394 38.7037 47.6394V40.4034C38.8442 34.1507 31.9142 34.6894 31.9142 34.6894C25.7538 34.6894 24.8438 39.485 24.8438 39.485C24.587 40.4492 25.3338 40.4725 25.3338 40.4725L28.344 40.778C28.344 40.778 28.8573 40.8954 29.0442 40.2842C29.0442 40.2842 29.4406 38.192 31.6575 38.192C34.0696 38.192 34.0446 40.2629 34.0446 40.2629V41.9965C29.2293 42.1575 26.9978 43.4946 26.9978 43.4946C24.0246 45.1807 24.2117 48.5296 24.2117 48.5296C24.2117 53.9859 29.4091 53.7516 29.4091 53.7516C32.7335 53.7516 34.7001 51.3162 34.7001 51.3162C35.2853 52.347 36.3624 53.33 36.3624 53.33C36.9012 53.9145 37.4628 53.4239 37.4628 53.4239L39.8977 51.3398C40.436 50.9413 40.0382 50.4496 40.0382 50.4496ZM31.0315 50.3821C29.4678 50.3821 28.8865 48.8278 29.1461 47.3002C29.406 45.7725 30.7556 44.572 34.0449 44.6071V45.5359C34.1615 49.5933 32.3331 50.3821 31.0315 50.3821ZM83.7712 50.4496L82.7412 48.8809C82.4134 48.2953 82.4367 47.6394 82.4367 47.6394V40.4034C82.5772 34.1507 75.6472 34.6894 75.6472 34.6894C69.4867 34.6894 68.5768 39.485 68.5768 39.485C68.32 40.4492 69.0667 40.4725 69.0667 40.4725L72.077 40.778C72.077 40.778 72.5903 40.8954 72.7771 40.2842C72.7771 40.2842 73.1735 38.192 75.3904 38.192C77.8026 38.192 77.7776 40.2629 77.7776 40.2629V41.9965C72.9625 42.1575 70.7307 43.4946 70.7307 43.4946C67.7575 45.1807 67.9446 48.5296 67.9446 48.5296C67.9446 53.9859 73.142 53.7516 73.142 53.7516C76.4664 53.7516 78.433 51.3162 78.433 51.3162C79.0185 52.347 80.0951 53.33 80.0951 53.33C80.6339 53.9145 81.1958 53.4239 81.1958 53.4239L83.6304 51.3398C84.169 50.9413 83.7712 50.4496 83.7712 50.4496V50.4496ZM74.7645 50.3821C73.2008 50.3821 72.6195 48.8278 72.8791 47.3002C73.139 45.7725 74.4886 44.572 77.7776 44.6071V45.5359C77.8944 49.5933 76.0664 50.3821 74.7645 50.3821Z" fill="black"/>
<path d="M92.0578 64.1462C92.0578 64.1462 91.7825 64.6253 92.1207 64.7324C92.1207 64.7324 92.5028 64.8816 92.9793 64.4393C92.9793 64.4393 96.4542 61.4028 96.538 55.8746C96.538 55.8746 96.5635 55.1841 96.2865 54.9953C96.2865 54.9953 95.1979 54.0319 91.2833 54.325C91.2833 54.325 87.871 54.5555 86.008 56.2098C86.008 56.2098 85.8406 56.3562 85.8406 56.5445C85.8406 56.5445 85.8004 56.9512 86.8245 56.775C86.8245 56.775 90.2365 56.293 92.2671 56.5445C92.2671 56.5445 93.3142 56.6702 93.6072 57.0265C93.6072 57.0265 94.0887 57.4244 93.8373 58.7432C93.8373 58.7438 93.1462 62.0941 92.0578 64.1462Z" fill="#F3971B"/>
<path d="M91.3698 58.844C91.3698 58.844 91.8794 59.5044 91.0571 60.0741C91.0571 60.0741 82.2729 67.1024 67.5235 67.1024C67.5235 67.1024 52.3409 67.8516 39.6634 56.3297C39.6634 56.3297 39.219 55.9394 39.4949 55.5766C39.4949 55.5766 39.7415 55.2428 40.3801 55.6058C40.3801 55.6058 52.3058 63.0391 67.9682 63.0391C67.9682 63.0391 78.8547 63.4606 90.0221 58.6833C90.0221 58.6833 90.9118 58.2221 91.3698 58.844Z" fill="#F3971B"/>
</svg>
