<svg width="131" height="44" viewBox="0 0 131 44" fill="none" xmlns="http://www.w3.org/2000/svg">
<rect width="131" height="44" rx="5" fill="#1877F2" fill-opacity="0.08"/>
<path d="M23.5488 32V22.8777H26.6096L27.0688 19.3216H23.5488V17.0515C23.5488 16.0222 23.8335 15.3208 25.3111 15.3208L27.1926 15.32V12.1392C26.8673 12.0969 25.7503 12 24.4503 12C21.7357 12 19.8773 13.657 19.8773 16.6993V19.3216H16.8073V22.8777H19.8773V32H23.5488Z" fill="#1877F2"/>
<line opacity="0.15" x1="42.5" y1="12" x2="42.5" y2="32" stroke="#061C3D"/>
<path d="M53.372 27V17.2H54.884V27H53.372ZM54.044 22.828V21.372H59.098V22.828H54.044ZM54.044 18.656V17.2H59.728V18.656H54.044ZM64.0528 27.14C63.4461 27.14 62.8908 26.972 62.3868 26.636C61.8921 26.3 61.4955 25.8427 61.1968 25.264C60.8981 24.6853 60.7488 24.032 60.7488 23.304C60.7488 22.5667 60.8981 21.9133 61.1968 21.344C61.5048 20.7653 61.9155 20.3127 62.4288 19.986C62.9515 19.6593 63.5348 19.496 64.1788 19.496C64.5615 19.496 64.9115 19.552 65.2288 19.664C65.5461 19.776 65.8215 19.9347 66.0548 20.14C66.2975 20.336 66.4935 20.5647 66.6428 20.826C66.8015 21.0873 66.8995 21.3673 66.9368 21.666L66.6148 21.554V19.65H68.0708V27H66.6148V25.25L66.9508 25.152C66.8948 25.404 66.7781 25.6513 66.6008 25.894C66.4328 26.1273 66.2135 26.3373 65.9428 26.524C65.6815 26.7107 65.3875 26.86 65.0608 26.972C64.7435 27.084 64.4075 27.14 64.0528 27.14ZM64.4308 25.81C64.8695 25.81 65.2568 25.7027 65.5928 25.488C65.9288 25.2733 66.1901 24.9793 66.3768 24.606C66.5728 24.2233 66.6708 23.7893 66.6708 23.304C66.6708 22.828 66.5728 22.4033 66.3768 22.03C66.1901 21.6567 65.9288 21.3627 65.5928 21.148C65.2568 20.9333 64.8695 20.826 64.4308 20.826C64.0015 20.826 63.6188 20.9333 63.2828 21.148C62.9561 21.3627 62.6948 21.6567 62.4988 22.03C62.3121 22.4033 62.2188 22.828 62.2188 23.304C62.2188 23.7893 62.3121 24.2233 62.4988 24.606C62.6948 24.9793 62.9561 25.2733 63.2828 25.488C63.6188 25.7027 64.0015 25.81 64.4308 25.81ZM73.2062 27.14C72.5248 27.14 71.9135 26.972 71.3722 26.636C70.8402 26.3 70.4155 25.8427 70.0982 25.264C69.7902 24.6853 69.6362 24.0367 69.6362 23.318C69.6362 22.5993 69.7902 21.9507 70.0982 21.372C70.4155 20.7933 70.8402 20.336 71.3722 20C71.9135 19.664 72.5248 19.496 73.2062 19.496C73.8595 19.496 74.4522 19.6313 74.9842 19.902C75.5255 20.1633 75.9362 20.5227 76.2162 20.98L75.4182 21.96C75.2688 21.7453 75.0775 21.5493 74.8442 21.372C74.6108 21.1947 74.3635 21.0547 74.1022 20.952C73.8408 20.8493 73.5888 20.798 73.3462 20.798C72.8982 20.798 72.4968 20.91 72.1422 21.134C71.7968 21.3487 71.5215 21.6473 71.3162 22.03C71.1108 22.4127 71.0082 22.842 71.0082 23.318C71.0082 23.794 71.1155 24.2233 71.3302 24.606C71.5448 24.9793 71.8295 25.278 72.1842 25.502C72.5388 25.726 72.9308 25.838 73.3602 25.838C73.6122 25.838 73.8548 25.796 74.0882 25.712C74.3308 25.628 74.5642 25.502 74.7882 25.334C75.0122 25.166 75.2222 24.9607 75.4182 24.718L76.2162 25.698C75.9175 26.118 75.4882 26.4633 74.9282 26.734C74.3775 27.0047 73.8035 27.14 73.2062 27.14ZM81.0064 27.14C80.2504 27.14 79.5784 26.9813 78.9904 26.664C78.4117 26.3373 77.9544 25.894 77.6184 25.334C77.2917 24.774 77.1284 24.13 77.1284 23.402C77.1284 22.8233 77.2217 22.296 77.4084 21.82C77.595 21.344 77.8517 20.9333 78.1784 20.588C78.5144 20.2333 78.911 19.9627 79.3684 19.776C79.835 19.58 80.339 19.482 80.8804 19.482C81.3564 19.482 81.7997 19.5753 82.2104 19.762C82.621 19.9393 82.9757 20.1867 83.2744 20.504C83.5824 20.8213 83.8157 21.1993 83.9744 21.638C84.1424 22.0673 84.2217 22.5387 84.2124 23.052L84.1984 23.668H78.1924L77.8704 22.52H82.9524L82.7424 22.758V22.422C82.7144 22.114 82.6117 21.8387 82.4344 21.596C82.257 21.3533 82.033 21.162 81.7624 21.022C81.4917 20.882 81.1977 20.812 80.8804 20.812C80.3764 20.812 79.9517 20.91 79.6064 21.106C79.261 21.2927 78.9997 21.5727 78.8224 21.946C78.645 22.31 78.5564 22.7627 78.5564 23.304C78.5564 23.8173 78.6637 24.2653 78.8784 24.648C79.093 25.0213 79.3964 25.3107 79.7884 25.516C80.1804 25.7213 80.633 25.824 81.1464 25.824C81.5104 25.824 81.8464 25.7633 82.1544 25.642C82.4717 25.5207 82.8124 25.3013 83.1764 24.984L83.9044 26.006C83.6804 26.23 83.405 26.426 83.0784 26.594C82.761 26.762 82.4204 26.8973 82.0564 27C81.7017 27.0933 81.3517 27.14 81.0064 27.14ZM89.6435 27.14C89.3262 27.14 89.0088 27.0887 88.6915 26.986C88.3835 26.8833 88.0988 26.748 87.8375 26.58C87.5855 26.4027 87.3708 26.2113 87.1935 26.006C87.0255 25.7913 86.9135 25.5767 86.8575 25.362L87.2215 25.166V26.958H85.7795V16.64H87.2215V21.33L86.9975 21.204C87.0442 20.9893 87.1468 20.784 87.3055 20.588C87.4642 20.3827 87.6648 20.2007 87.9075 20.042C88.1595 19.874 88.4302 19.7433 88.7195 19.65C89.0088 19.5473 89.3028 19.496 89.6015 19.496C90.2642 19.496 90.8522 19.6593 91.3655 19.986C91.8788 20.3127 92.2848 20.7653 92.5835 21.344C92.8822 21.9133 93.0315 22.5667 93.0315 23.304C93.0315 24.0413 92.8822 24.6993 92.5835 25.278C92.2942 25.8567 91.8928 26.314 91.3795 26.65C90.8662 26.9767 90.2875 27.14 89.6435 27.14ZM89.4055 25.824C89.8348 25.824 90.2175 25.7167 90.5535 25.502C90.8895 25.278 91.1555 24.9793 91.3515 24.606C91.5475 24.2233 91.6455 23.7893 91.6455 23.304C91.6455 22.828 91.5475 22.4033 91.3515 22.03C91.1648 21.6473 90.9035 21.3487 90.5675 21.134C90.2315 20.9193 89.8442 20.812 89.4055 20.812C88.9668 20.812 88.5795 20.9193 88.2435 21.134C87.9075 21.3487 87.6415 21.6473 87.4455 22.03C87.2495 22.4033 87.1515 22.828 87.1515 23.304C87.1515 23.7893 87.2495 24.2233 87.4455 24.606C87.6415 24.9793 87.9075 25.278 88.2435 25.502C88.5795 25.7167 88.9668 25.824 89.4055 25.824ZM97.9018 27.14C97.1832 27.14 96.5392 26.9767 95.9698 26.65C95.4098 26.314 94.9665 25.8613 94.6398 25.292C94.3132 24.7133 94.1498 24.0553 94.1498 23.318C94.1498 22.5807 94.3132 21.9273 94.6398 21.358C94.9665 20.7793 95.4098 20.3267 95.9698 20C96.5392 19.664 97.1832 19.496 97.9018 19.496C98.6112 19.496 99.2458 19.664 99.8058 20C100.375 20.3267 100.823 20.7793 101.15 21.358C101.477 21.9273 101.64 22.5807 101.64 23.318C101.64 24.0553 101.477 24.7133 101.15 25.292C100.823 25.8613 100.375 26.314 99.8058 26.65C99.2458 26.9767 98.6112 27.14 97.9018 27.14ZM97.9018 25.824C98.3405 25.824 98.7325 25.7167 99.0778 25.502C99.4232 25.278 99.6938 24.9793 99.8898 24.606C100.086 24.2233 100.179 23.794 100.17 23.318C100.179 22.8327 100.086 22.4033 99.8898 22.03C99.6938 21.6473 99.4232 21.3487 99.0778 21.134C98.7325 20.9193 98.3405 20.812 97.9018 20.812C97.4632 20.812 97.0665 20.924 96.7118 21.148C96.3665 21.3627 96.0958 21.6613 95.8998 22.044C95.7038 22.4173 95.6105 22.842 95.6198 23.318C95.6105 23.794 95.7038 24.2233 95.8998 24.606C96.0958 24.9793 96.3665 25.278 96.7118 25.502C97.0665 25.7167 97.4632 25.824 97.9018 25.824ZM106.515 27.14C105.796 27.14 105.152 26.9767 104.583 26.65C104.023 26.314 103.58 25.8613 103.253 25.292C102.926 24.7133 102.763 24.0553 102.763 23.318C102.763 22.5807 102.926 21.9273 103.253 21.358C103.58 20.7793 104.023 20.3267 104.583 20C105.152 19.664 105.796 19.496 106.515 19.496C107.224 19.496 107.859 19.664 108.419 20C108.988 20.3267 109.436 20.7793 109.763 21.358C110.09 21.9273 110.253 22.5807 110.253 23.318C110.253 24.0553 110.09 24.7133 109.763 25.292C109.436 25.8613 108.988 26.314 108.419 26.65C107.859 26.9767 107.224 27.14 106.515 27.14ZM106.515 25.824C106.954 25.824 107.346 25.7167 107.691 25.502C108.036 25.278 108.307 24.9793 108.503 24.606C108.699 24.2233 108.792 23.794 108.783 23.318C108.792 22.8327 108.699 22.4033 108.503 22.03C108.307 21.6473 108.036 21.3487 107.691 21.134C107.346 20.9193 106.954 20.812 106.515 20.812C106.076 20.812 105.68 20.924 105.325 21.148C104.98 21.3627 104.709 21.6613 104.513 22.044C104.317 22.4173 104.224 22.842 104.233 23.318C104.224 23.794 104.317 24.2233 104.513 24.606C104.709 24.9793 104.98 25.278 105.325 25.502C105.68 25.7167 106.076 25.824 106.515 25.824ZM113.14 24.704L113.07 23.136L116.584 19.65H118.53L113.14 24.704ZM111.824 27V16.64H113.266V27H111.824ZM116.78 27L114.008 23.766L115.03 22.828L118.628 27H116.78Z" fill="#061C3D"/>
</svg>
