<svg width="137" height="44" viewBox="0 0 137 44" fill="none" xmlns="http://www.w3.org/2000/svg">
<rect width="137" height="44" rx="5" fill="url(#paint0_linear_297_5119)" fill-opacity="0.08"/>
<g clip-path="url(#clip0_297_5119)">
<path d="M31.9804 17.8801C31.9336 16.8174 31.7617 16.0868 31.5156 15.4537C31.2616 14.7818 30.8709 14.1801 30.359 13.68C29.8589 13.1721 29.2533 12.7774 28.5891 12.5274C27.9524 12.2813 27.2256 12.1094 26.163 12.0626C25.0923 12.0118 24.7525 12 22.0371 12C19.3217 12 18.9818 12.0118 17.9152 12.0586C16.8525 12.1055 16.1219 12.2775 15.489 12.5235C14.8169 12.7774 14.2153 13.1681 13.7152 13.68C13.2073 14.1801 12.8127 14.7857 12.5626 15.4499C12.3164 16.0868 12.1446 16.8134 12.0977 17.8761C12.0469 18.9467 12.0352 19.2866 12.0352 22.002C12.0352 24.7173 12.0469 25.0572 12.0938 26.1239C12.1406 27.1865 12.3126 27.9171 12.5588 28.5502C12.8127 29.2221 13.2073 29.8238 13.7152 30.3239C14.2153 30.8318 14.8209 31.2265 15.4851 31.4765C16.1219 31.7226 16.8486 31.8945 17.9114 31.9413C18.9779 31.9883 19.3179 31.9999 22.0333 31.9999C24.7486 31.9999 25.0885 31.9883 26.1552 31.9413C27.2178 31.8945 27.9484 31.7226 28.5813 31.4765C29.9254 30.9568 30.9881 29.8941 31.5078 28.5502C31.7538 27.9133 31.9258 27.1865 31.9726 26.1239C32.0195 25.0572 32.0312 24.7173 32.0312 22.002C32.0312 19.2866 32.0273 18.9467 31.9804 17.8801ZM30.1794 26.0457C30.1364 27.0225 29.9723 27.5499 29.8355 27.9015C29.4995 28.7728 28.808 29.4643 27.9367 29.8004C27.585 29.9372 27.0538 30.1012 26.0808 30.1441C25.026 30.1911 24.7096 30.2027 22.0411 30.2027C19.3725 30.2027 19.0522 30.1911 18.0011 30.1441C17.0244 30.1012 16.4969 29.9372 16.1453 29.8004C15.7117 29.6402 15.317 29.3862 14.9967 29.0541C14.6646 28.7298 14.4106 28.3391 14.2504 27.9055C14.1137 27.5539 13.9496 27.0225 13.9067 26.0497C13.8597 24.9948 13.8481 24.6783 13.8481 22.0097C13.8481 19.3412 13.8597 19.0209 13.9067 17.9699C13.9496 16.9932 14.1137 16.4657 14.2504 16.1141C14.4106 15.6804 14.6646 15.2859 15.0007 14.9654C15.3248 14.6333 15.7155 14.3793 16.1493 14.2192C16.5009 14.0825 17.0323 13.9184 18.0051 13.8754C19.06 13.8285 19.3765 13.8168 22.0449 13.8168C24.7174 13.8168 25.0337 13.8285 26.0848 13.8754C27.0616 13.9184 27.589 14.0825 27.9406 14.2192C28.3742 14.3793 28.7689 14.6333 29.0892 14.9654C29.4213 15.2897 29.6753 15.6804 29.8355 16.1141C29.9723 16.4657 30.1364 16.997 30.1794 17.9699C30.2262 19.0248 30.238 19.3412 30.238 22.0097C30.238 24.6783 30.2262 24.9908 30.1794 26.0457Z" fill="url(#paint1_linear_297_5119)"/>
<path d="M22.0371 16.8643C19.2007 16.8643 16.8994 19.1654 16.8994 22.002C16.8994 24.8385 19.2007 27.1397 22.0371 27.1397C24.8737 27.1397 27.1749 24.8385 27.1749 22.002C27.1749 19.1654 24.8737 16.8643 22.0371 16.8643ZM22.0371 25.3347C20.197 25.3347 18.7044 23.8422 18.7044 22.002C18.7044 20.1617 20.197 18.6693 22.0371 18.6693C23.8774 18.6693 25.3698 20.1617 25.3698 22.002C25.3698 23.8422 23.8774 25.3347 22.0371 25.3347Z" fill="url(#paint2_linear_297_5119)"/>
<path d="M28.5775 16.6613C28.5775 17.3237 28.0404 17.8608 27.3779 17.8608C26.7155 17.8608 26.1785 17.3237 26.1785 16.6613C26.1785 15.9988 26.7155 15.4619 27.3779 15.4619C28.0404 15.4619 28.5775 15.9988 28.5775 16.6613Z" fill="url(#paint3_linear_297_5119)"/>
</g>
<line opacity="0.15" x1="42.5" y1="12" x2="42.5" y2="32" stroke="#061C3D"/>
<path d="M53.008 27V25.6H54.59V18.6H53.008V17.2H57.684V18.6H56.102V25.6H57.684V27H53.008ZM59.6935 27V19.65H61.1355V21.162L60.8835 21.33C60.9769 21.0033 61.1589 20.7047 61.4295 20.434C61.7002 20.154 62.0222 19.93 62.3955 19.762C62.7689 19.5847 63.1515 19.496 63.5435 19.496C64.1035 19.496 64.5702 19.608 64.9435 19.832C65.3169 20.0467 65.5969 20.378 65.7835 20.826C65.9702 21.274 66.0635 21.8387 66.0635 22.52V27H64.6215V22.618C64.6215 22.198 64.5655 21.8527 64.4535 21.582C64.3415 21.302 64.1689 21.1013 63.9355 20.98C63.7022 20.8493 63.4129 20.7933 63.0675 20.812C62.7875 20.812 62.5309 20.8587 62.2975 20.952C62.0642 21.036 61.8589 21.1573 61.6815 21.316C61.5135 21.4747 61.3782 21.6613 61.2755 21.876C61.1822 22.0813 61.1355 22.3053 61.1355 22.548V27H60.4215C60.3002 27 60.1789 27 60.0575 27C59.9362 27 59.8149 27 59.6935 27ZM70.4697 27.14C69.8537 27.14 69.2984 27.0327 68.8037 26.818C68.3091 26.6033 67.8984 26.286 67.5717 25.866L68.5517 25.026C68.8317 25.3527 69.1351 25.5907 69.4617 25.74C69.7977 25.88 70.1757 25.95 70.5957 25.95C70.7637 25.95 70.9177 25.9313 71.0577 25.894C71.2071 25.8473 71.3331 25.782 71.4357 25.698C71.5477 25.614 71.6317 25.516 71.6877 25.404C71.7437 25.2827 71.7717 25.152 71.7717 25.012C71.7717 24.7693 71.6831 24.5733 71.5057 24.424C71.4124 24.3587 71.2631 24.2887 71.0577 24.214C70.8617 24.13 70.6051 24.046 70.2877 23.962C69.7464 23.822 69.3031 23.6633 68.9577 23.486C68.6124 23.3087 68.3464 23.108 68.1597 22.884C68.0197 22.7067 67.9171 22.5153 67.8517 22.31C67.7864 22.0953 67.7537 21.862 67.7537 21.61C67.7537 21.302 67.8191 21.022 67.9497 20.77C68.0897 20.5087 68.2764 20.2847 68.5097 20.098C68.7524 19.902 69.0324 19.7527 69.3497 19.65C69.6764 19.5473 70.0217 19.496 70.3857 19.496C70.7311 19.496 71.0717 19.5427 71.4077 19.636C71.7531 19.7293 72.0704 19.8647 72.3597 20.042C72.6491 20.2193 72.8917 20.4293 73.0877 20.672L72.2617 21.582C72.0844 21.4047 71.8884 21.2507 71.6737 21.12C71.4684 20.98 71.2584 20.8727 71.0437 20.798C70.8291 20.7233 70.6331 20.686 70.4557 20.686C70.2597 20.686 70.0824 20.7047 69.9237 20.742C69.7651 20.7793 69.6297 20.8353 69.5177 20.91C69.4151 20.9847 69.3357 21.078 69.2797 21.19C69.2237 21.302 69.1957 21.428 69.1957 21.568C69.2051 21.6893 69.2331 21.806 69.2797 21.918C69.3357 22.0207 69.4104 22.1093 69.5037 22.184C69.6064 22.2587 69.7604 22.338 69.9657 22.422C70.1711 22.506 70.4324 22.5853 70.7497 22.66C71.2164 22.7813 71.5991 22.9167 71.8977 23.066C72.2057 23.206 72.4484 23.3693 72.6257 23.556C72.8124 23.7333 72.9431 23.9387 73.0177 24.172C73.0924 24.4053 73.1297 24.6667 73.1297 24.956C73.1297 25.376 73.0084 25.754 72.7657 26.09C72.5324 26.4167 72.2151 26.6733 71.8137 26.86C71.4124 27.0467 70.9644 27.14 70.4697 27.14ZM75.6289 27V17.774H77.0709V27H75.6289ZM74.1029 21.05V19.65H78.7789V21.05H74.1029ZM82.8516 27.14C82.245 27.14 81.6896 26.972 81.1856 26.636C80.691 26.3 80.2943 25.8427 79.9956 25.264C79.697 24.6853 79.5476 24.032 79.5476 23.304C79.5476 22.5667 79.697 21.9133 79.9956 21.344C80.3036 20.7653 80.7143 20.3127 81.2276 19.986C81.7503 19.6593 82.3336 19.496 82.9776 19.496C83.3603 19.496 83.7103 19.552 84.0276 19.664C84.345 19.776 84.6203 19.9347 84.8536 20.14C85.0963 20.336 85.2923 20.5647 85.4416 20.826C85.6003 21.0873 85.6983 21.3673 85.7356 21.666L85.4136 21.554V19.65H86.8696V27H85.4136V25.25L85.7496 25.152C85.6936 25.404 85.577 25.6513 85.3996 25.894C85.2316 26.1273 85.0123 26.3373 84.7416 26.524C84.4803 26.7107 84.1863 26.86 83.8596 26.972C83.5423 27.084 83.2063 27.14 82.8516 27.14ZM83.2296 25.81C83.6683 25.81 84.0556 25.7027 84.3916 25.488C84.7276 25.2733 84.989 24.9793 85.1756 24.606C85.3716 24.2233 85.4696 23.7893 85.4696 23.304C85.4696 22.828 85.3716 22.4033 85.1756 22.03C84.989 21.6567 84.7276 21.3627 84.3916 21.148C84.0556 20.9333 83.6683 20.826 83.2296 20.826C82.8003 20.826 82.4176 20.9333 82.0816 21.148C81.755 21.3627 81.4936 21.6567 81.2976 22.03C81.111 22.4033 81.0176 22.828 81.0176 23.304C81.0176 23.7893 81.111 24.2233 81.2976 24.606C81.4936 24.9793 81.755 25.2733 82.0816 25.488C82.4176 25.7027 82.8003 25.81 83.2296 25.81ZM92.173 30.22C91.6503 30.22 91.1277 30.136 90.605 29.968C90.0917 29.8093 89.6763 29.5993 89.359 29.338L89.891 28.218C90.0777 28.358 90.297 28.4793 90.549 28.582C90.801 28.694 91.067 28.778 91.347 28.834C91.627 28.8993 91.9023 28.932 92.173 28.932C92.6863 28.932 93.1157 28.848 93.461 28.68C93.8063 28.512 94.0677 28.2647 94.245 27.938C94.4223 27.6113 94.511 27.2053 94.511 26.72V25.306L94.665 25.404C94.6183 25.6933 94.4643 25.9733 94.203 26.244C93.951 26.5053 93.6337 26.72 93.251 26.888C92.8683 27.056 92.4763 27.14 92.075 27.14C91.375 27.14 90.7497 26.9767 90.199 26.65C89.6577 26.314 89.2283 25.8613 88.911 25.292C88.5937 24.7133 88.435 24.0553 88.435 23.318C88.435 22.5807 88.589 21.9273 88.897 21.358C89.2143 20.7793 89.6437 20.3267 90.185 20C90.7357 19.664 91.3517 19.496 92.033 19.496C92.313 19.496 92.5837 19.5333 92.845 19.608C93.1063 19.6733 93.349 19.7713 93.573 19.902C93.797 20.0233 93.9977 20.1587 94.175 20.308C94.3523 20.4573 94.497 20.616 94.609 20.784C94.721 20.952 94.791 21.1107 94.819 21.26L94.511 21.372V19.65H95.953V26.552C95.953 27.14 95.8643 27.658 95.687 28.106C95.519 28.5633 95.2717 28.946 94.945 29.254C94.6183 29.5713 94.2217 29.8093 93.755 29.968C93.2883 30.136 92.761 30.22 92.173 30.22ZM92.229 25.81C92.6863 25.81 93.0923 25.7027 93.447 25.488C93.8017 25.2733 94.077 24.9793 94.273 24.606C94.469 24.2327 94.567 23.8033 94.567 23.318C94.567 22.8327 94.4643 22.4033 94.259 22.03C94.063 21.6473 93.7877 21.3487 93.433 21.134C93.0877 20.9193 92.6863 20.812 92.229 20.812C91.781 20.812 91.3797 20.924 91.025 21.148C90.6797 21.3627 90.4043 21.6613 90.199 22.044C90.003 22.4173 89.905 22.842 89.905 23.318C89.905 23.794 90.003 24.2233 90.199 24.606C90.4043 24.9793 90.6797 25.2733 91.025 25.488C91.3797 25.7027 91.781 25.81 92.229 25.81ZM97.9748 27V19.65H99.4308V21.96L99.2908 21.4C99.3935 21.0453 99.5661 20.7233 99.8088 20.434C100.061 20.1447 100.345 19.916 100.663 19.748C100.989 19.58 101.325 19.496 101.671 19.496C101.829 19.496 101.979 19.51 102.119 19.538C102.268 19.566 102.385 19.5987 102.469 19.636L102.091 21.204C101.979 21.1573 101.853 21.12 101.713 21.092C101.582 21.0547 101.451 21.036 101.321 21.036C101.069 21.036 100.826 21.0873 100.593 21.19C100.369 21.2833 100.168 21.4187 99.9908 21.596C99.8228 21.764 99.6875 21.9647 99.5848 22.198C99.4821 22.422 99.4308 22.6693 99.4308 22.94V27H97.9748ZM106.135 27.14C105.528 27.14 104.973 26.972 104.469 26.636C103.974 26.3 103.577 25.8427 103.279 25.264C102.98 24.6853 102.831 24.032 102.831 23.304C102.831 22.5667 102.98 21.9133 103.279 21.344C103.587 20.7653 103.997 20.3127 104.511 19.986C105.033 19.6593 105.617 19.496 106.261 19.496C106.643 19.496 106.993 19.552 107.311 19.664C107.628 19.776 107.903 19.9347 108.137 20.14C108.379 20.336 108.575 20.5647 108.725 20.826C108.883 21.0873 108.981 21.3673 109.019 21.666L108.697 21.554V19.65H110.153V27H108.697V25.25L109.033 25.152C108.977 25.404 108.86 25.6513 108.683 25.894C108.515 26.1273 108.295 26.3373 108.025 26.524C107.763 26.7107 107.469 26.86 107.143 26.972C106.825 27.084 106.489 27.14 106.135 27.14ZM106.513 25.81C106.951 25.81 107.339 25.7027 107.675 25.488C108.011 25.2733 108.272 24.9793 108.459 24.606C108.655 24.2233 108.753 23.7893 108.753 23.304C108.753 22.828 108.655 22.4033 108.459 22.03C108.272 21.6567 108.011 21.3627 107.675 21.148C107.339 20.9333 106.951 20.826 106.513 20.826C106.083 20.826 105.701 20.9333 105.365 21.148C105.038 21.3627 104.777 21.6567 104.581 22.03C104.394 22.4033 104.301 22.828 104.301 23.304C104.301 23.7893 104.394 24.2233 104.581 24.606C104.777 24.9793 105.038 25.2733 105.365 25.488C105.701 25.7027 106.083 25.81 106.513 25.81ZM112.138 27V19.65H113.594V21.218L113.328 21.386C113.403 21.1433 113.52 20.91 113.678 20.686C113.846 20.462 114.047 20.266 114.28 20.098C114.523 19.9207 114.78 19.7807 115.05 19.678C115.33 19.5753 115.615 19.524 115.904 19.524C116.324 19.524 116.693 19.594 117.01 19.734C117.328 19.874 117.589 20.084 117.794 20.364C118 20.644 118.149 20.994 118.242 21.414L118.018 21.358L118.116 21.12C118.219 20.9053 118.359 20.7047 118.536 20.518C118.723 20.322 118.933 20.1493 119.166 20C119.4 19.8507 119.647 19.734 119.908 19.65C120.17 19.566 120.426 19.524 120.678 19.524C121.229 19.524 121.682 19.636 122.036 19.86C122.4 20.084 122.671 20.4247 122.848 20.882C123.035 21.3393 123.128 21.9087 123.128 22.59V27H121.672V22.674C121.672 22.254 121.616 21.9133 121.504 21.652C121.402 21.3813 121.243 21.1807 121.028 21.05C120.814 20.9193 120.538 20.854 120.202 20.854C119.941 20.854 119.694 20.9007 119.46 20.994C119.236 21.078 119.04 21.1993 118.872 21.358C118.704 21.5167 118.574 21.7033 118.48 21.918C118.387 22.1233 118.34 22.352 118.34 22.604V27H116.884V22.646C116.884 22.2633 116.828 21.9413 116.716 21.68C116.604 21.4093 116.441 21.204 116.226 21.064C116.012 20.924 115.75 20.854 115.442 20.854C115.181 20.854 114.938 20.9007 114.714 20.994C114.49 21.078 114.294 21.1993 114.126 21.358C113.958 21.5073 113.828 21.6893 113.734 21.904C113.641 22.1093 113.594 22.3333 113.594 22.576V27H112.138Z" fill="#061C3D"/>
<defs>
<linearGradient id="paint0_linear_297_5119" x1="11.4968" y1="40.3075" x2="32.8172" y2="-26.0759" gradientUnits="userSpaceOnUse">
<stop stop-color="#FFD600"/>
<stop offset="0.5" stop-color="#FF0100"/>
<stop offset="1" stop-color="#D800B9"/>
</linearGradient>
<linearGradient id="paint1_linear_297_5119" x1="13.7132" y1="30.3216" x2="30.3565" y2="13.6815" gradientUnits="userSpaceOnUse">
<stop stop-color="#FFD600"/>
<stop offset="0.5" stop-color="#FF0100"/>
<stop offset="1" stop-color="#D800B9"/>
</linearGradient>
<linearGradient id="paint2_linear_297_5119" x1="17.7617" y1="26.2774" x2="26.3126" y2="17.7265" gradientUnits="userSpaceOnUse">
<stop stop-color="#FFD600"/>
<stop offset="0.5" stop-color="#FF0100"/>
<stop offset="1" stop-color="#D800B9"/>
</linearGradient>
<linearGradient id="paint3_linear_297_5119" x1="26.3798" y1="17.6595" x2="28.376" y2="15.6631" gradientUnits="userSpaceOnUse">
<stop stop-color="#FFD600"/>
<stop offset="0.5" stop-color="#FF0100"/>
<stop offset="1" stop-color="#D800B9"/>
</linearGradient>
<clipPath id="clip0_297_5119">
<rect width="20" height="20" fill="white" transform="translate(12 12)"/>
</clipPath>
</defs>
</svg>
