<svg width="112" height="24" viewBox="0 0 112 24" fill="none" xmlns="http://www.w3.org/2000/svg">
<path d="M46.942 5.3775C44.9197 5.3775 42.6197 6.31491 41.2144 8.19176L41.2153 8.18814L41.2144 8.18904L41.2153 5.67209H36.3919V23.2376H41.2144V13.2426C41.2144 11.4438 42.6091 9.53146 45.1917 9.53146C47.1873 9.53146 49.2526 10.9198 49.2526 13.2426V23.2376H54.0761V12.3489C54.0761 8.30873 51.1856 5.3775 46.942 5.3775ZM88.3578 5.673L83.9973 17.638L79.6368 5.673H74.1268L81.3541 23.2328H86.6396L93.8669 5.673H88.3578ZM21.992 10.9646C22.8134 9.86158 24.1219 9.21401 25.7021 9.21401C27.4402 9.21401 28.7589 10.2066 29.4406 11.6719L21.0137 15.1681C20.7836 13.3739 21.2427 11.9706 21.992 10.9646ZM31.2586 17.8371C29.2286 19.3395 28.0688 19.6979 26.2175 19.6979C24.5515 19.6979 23.2471 19.1807 22.3276 18.2736L34.6589 13.158C34.3897 11.2517 33.6661 9.54865 32.5529 8.25375C30.9326 6.37215 28.5344 5.37659 25.6145 5.37659C20.3109 5.37659 16.3117 9.28913 16.3117 14.457C16.3117 19.7588 20.3204 23.5362 26.1462 23.5362C29.4103 23.5362 32.7477 21.9893 34.3089 20.1819L31.2586 17.8371ZM15.852 18.8087H4.88931V0.418945H0V23.2376H15.852V18.8087ZM102.528 9.50996C99.8343 9.50996 97.8783 11.5513 97.8783 14.4552C97.8783 17.2278 99.9502 19.4004 102.593 19.4004C105.287 19.4004 107.242 17.3029 107.242 14.4552C107.242 11.6825 105.171 9.50996 102.528 9.50996ZM102.528 23.5337C97.2529 23.5337 93.1195 19.6038 93.1195 14.4552C93.1195 9.36425 97.2814 5.37659 102.593 5.37659C107.868 5.37659 112 9.30633 112 14.4552C112 19.545 107.839 23.5335 102.528 23.5335V23.5337ZM65.3917 9.50996C62.6981 9.50996 60.7431 11.5513 60.7431 14.4552C60.7431 17.2278 62.8141 19.4004 65.4573 19.4004C68.151 19.4004 70.1059 17.3029 70.1059 14.4552C70.1059 11.6825 68.0349 9.50996 65.3917 9.50996ZM65.3917 23.5337C60.1166 23.5337 55.9844 19.6038 55.9844 14.4552C55.9844 9.36425 60.1451 5.37659 65.4573 5.37659C70.7315 5.37659 74.8646 9.30633 74.8646 14.4552C74.8646 19.545 70.703 23.5335 65.3917 23.5335" fill="#E60012"/>
</svg>
