<svg width="122" height="44" viewBox="0 0 122 44" fill="none" xmlns="http://www.w3.org/2000/svg">
<rect width="122" height="44" rx="5" fill="#0E76A8"/>
<g clip-path="url(#clip0_297_5107)">
<path d="M31.995 31.9999V31.999H32V24.664C32 21.0757 31.2275 18.3115 27.0324 18.3115C25.0158 18.3115 23.6624 19.4182 23.1099 20.4674H23.0516V18.6465H19.0741V31.999H23.2158V25.3874C23.2158 23.6465 23.5458 21.9632 25.7016 21.9632C27.8258 21.9632 27.8574 23.9499 27.8574 25.499V31.9999H31.995Z" fill="white"/>
<path d="M12.33 18.6475H16.4766V32H12.33V18.6475Z" fill="white"/>
<path d="M14.4017 12C13.0758 12 12 13.0758 12 14.4017C12 15.7275 13.0758 16.8258 14.4017 16.8258C15.7275 16.8258 16.8033 15.7275 16.8033 14.4017C16.8025 13.0758 15.7267 12 14.4017 12V12Z" fill="white"/>
</g>
<line opacity="0.2" x1="42.5" y1="12" x2="42.5" y2="32" stroke="white"/>
<path d="M53.372 27V17.2H54.884V25.544H59.476V27H53.372ZM61.6269 27V19.65H63.0689V27H61.6269ZM62.3269 18.026C62.0189 18.026 61.7809 17.9467 61.6129 17.788C61.4449 17.6293 61.3609 17.4053 61.3609 17.116C61.3609 16.8453 61.4449 16.626 61.6129 16.458C61.7902 16.29 62.0282 16.206 62.3269 16.206C62.6349 16.206 62.8729 16.2853 63.0409 16.444C63.2089 16.6027 63.2929 16.8267 63.2929 17.116C63.2929 17.3867 63.2042 17.606 63.0269 17.774C62.8589 17.942 62.6255 18.026 62.3269 18.026ZM65.2853 27V19.65H66.7273V21.162L66.4753 21.33C66.5687 21.0033 66.7507 20.7047 67.0213 20.434C67.292 20.154 67.614 19.93 67.9873 19.762C68.3607 19.5847 68.7433 19.496 69.1353 19.496C69.6953 19.496 70.162 19.608 70.5353 19.832C70.9087 20.0467 71.1887 20.378 71.3753 20.826C71.562 21.274 71.6553 21.8387 71.6553 22.52V27H70.2133V22.618C70.2133 22.198 70.1573 21.8527 70.0453 21.582C69.9333 21.302 69.7607 21.1013 69.5273 20.98C69.294 20.8493 69.0047 20.7933 68.6593 20.812C68.3793 20.812 68.1227 20.8587 67.8893 20.952C67.656 21.036 67.4507 21.1573 67.2733 21.316C67.1053 21.4747 66.97 21.6613 66.8673 21.876C66.774 22.0813 66.7273 22.3053 66.7273 22.548V27H66.0133C65.892 27 65.7707 27 65.6493 27C65.528 27 65.4067 27 65.2853 27ZM74.9275 24.704L74.8575 23.136L78.3715 19.65H80.3175L74.9275 24.704ZM73.6115 27V16.64H75.0535V27H73.6115ZM78.5675 27L75.7955 23.766L76.8175 22.828L80.4155 27H78.5675ZM84.6841 27.14C83.9281 27.14 83.2561 26.9813 82.6681 26.664C82.0894 26.3373 81.6321 25.894 81.2961 25.334C80.9694 24.774 80.8061 24.13 80.8061 23.402C80.8061 22.8233 80.8994 22.296 81.0861 21.82C81.2728 21.344 81.5294 20.9333 81.8561 20.588C82.1921 20.2333 82.5888 19.9627 83.0461 19.776C83.5128 19.58 84.0168 19.482 84.5581 19.482C85.0341 19.482 85.4774 19.5753 85.8881 19.762C86.2988 19.9393 86.6534 20.1867 86.9521 20.504C87.2601 20.8213 87.4934 21.1993 87.6521 21.638C87.8201 22.0673 87.8994 22.5387 87.8901 23.052L87.8761 23.668H81.8701L81.5481 22.52H86.6301L86.4201 22.758V22.422C86.3921 22.114 86.2894 21.8387 86.1121 21.596C85.9348 21.3533 85.7108 21.162 85.4401 21.022C85.1694 20.882 84.8754 20.812 84.5581 20.812C84.0541 20.812 83.6294 20.91 83.2841 21.106C82.9388 21.2927 82.6774 21.5727 82.5001 21.946C82.3228 22.31 82.2341 22.7627 82.2341 23.304C82.2341 23.8173 82.3414 24.2653 82.5561 24.648C82.7708 25.0213 83.0741 25.3107 83.4661 25.516C83.8581 25.7213 84.3108 25.824 84.8241 25.824C85.1881 25.824 85.5241 25.7633 85.8321 25.642C86.1494 25.5207 86.4901 25.3013 86.8541 24.984L87.5821 26.006C87.3581 26.23 87.0828 26.426 86.7561 26.594C86.4388 26.762 86.0981 26.8973 85.7341 27C85.3794 27.0933 85.0294 27.14 84.6841 27.14ZM92.5232 27.14C91.8512 27.14 91.2492 26.9767 90.7172 26.65C90.1946 26.314 89.7792 25.8613 89.4712 25.292C89.1632 24.7133 89.0092 24.0553 89.0092 23.318C89.0092 22.5807 89.1586 21.9273 89.4572 21.358C89.7652 20.7793 90.1806 20.3267 90.7032 20C91.2259 19.664 91.8186 19.496 92.4812 19.496C92.8452 19.496 93.1952 19.5567 93.5312 19.678C93.8766 19.79 94.1846 19.9487 94.4552 20.154C94.7259 20.35 94.9359 20.5693 95.0852 20.812C95.2439 21.0453 95.3232 21.2833 95.3232 21.526L94.9032 21.554V16.64H96.3452V27H94.9032V25.25H95.1832C95.1832 25.474 95.1086 25.698 94.9592 25.922C94.8099 26.1367 94.6092 26.3373 94.3572 26.524C94.1146 26.7107 93.8299 26.86 93.5032 26.972C93.1859 27.084 92.8592 27.14 92.5232 27.14ZM92.7192 25.894C93.1579 25.894 93.5452 25.782 93.8812 25.558C94.2172 25.334 94.4786 25.0307 94.6652 24.648C94.8612 24.256 94.9592 23.8127 94.9592 23.318C94.9592 22.8233 94.8612 22.3847 94.6652 22.002C94.4786 21.61 94.2172 21.302 93.8812 21.078C93.5452 20.854 93.1579 20.742 92.7192 20.742C92.2806 20.742 91.8932 20.854 91.5572 21.078C91.2212 21.302 90.9552 21.61 90.7592 22.002C90.5726 22.3847 90.4792 22.8233 90.4792 23.318C90.4792 23.8127 90.5726 24.256 90.7592 24.648C90.9552 25.0307 91.2212 25.334 91.5572 25.558C91.8932 25.782 92.2806 25.894 92.7192 25.894ZM98.5683 27V19.65H100.01V27H98.5683ZM99.2683 18.026C98.9603 18.026 98.7223 17.9467 98.5543 17.788C98.3863 17.6293 98.3023 17.4053 98.3023 17.116C98.3023 16.8453 98.3863 16.626 98.5543 16.458C98.7316 16.29 98.9696 16.206 99.2683 16.206C99.5763 16.206 99.8143 16.2853 99.9823 16.444C100.15 16.6027 100.234 16.8267 100.234 17.116C100.234 17.3867 100.146 17.606 99.9683 17.774C99.8003 17.942 99.5669 18.026 99.2683 18.026ZM102.227 27V19.65H103.669V21.162L103.417 21.33C103.51 21.0033 103.692 20.7047 103.963 20.434C104.233 20.154 104.555 19.93 104.929 19.762C105.302 19.5847 105.685 19.496 106.077 19.496C106.637 19.496 107.103 19.608 107.477 19.832C107.85 20.0467 108.13 20.378 108.317 20.826C108.503 21.274 108.597 21.8387 108.597 22.52V27H107.155V22.618C107.155 22.198 107.099 21.8527 106.987 21.582C106.875 21.302 106.702 21.1013 106.469 20.98C106.235 20.8493 105.946 20.7933 105.601 20.812C105.321 20.812 105.064 20.8587 104.831 20.952C104.597 21.036 104.392 21.1573 104.215 21.316C104.047 21.4747 103.911 21.6613 103.809 21.876C103.715 22.0813 103.669 22.3053 103.669 22.548V27H102.955C102.833 27 102.712 27 102.591 27C102.469 27 102.348 27 102.227 27Z" fill="white"/>
<defs>
<clipPath id="clip0_297_5107">
<rect width="20" height="20" fill="white" transform="translate(12 12)"/>
</clipPath>
</defs>
</svg>
