<svg width="156" height="88" viewBox="0 0 156 88" fill="none" xmlns="http://www.w3.org/2000/svg">
<rect x="0.5" width="155" height="88" rx="8" fill="white"/>
<path d="M142.399 42.6904V40.4252H139.586V36.9038L139.492 36.933L136.85 37.7413L136.797 37.7572V40.4254H132.627V38.9389C132.627 38.2468 132.782 37.7172 133.087 37.3639C133.39 37.0149 133.823 36.8375 134.376 36.8375C134.773 36.8375 135.184 36.9311 135.598 37.1156L135.702 37.162V34.7764L135.653 34.7585C135.267 34.6197 134.742 34.5498 134.091 34.5498C133.27 34.5498 132.525 34.7284 131.875 35.0822C131.224 35.4366 130.713 35.9424 130.354 36.5856C129.997 37.228 129.816 37.97 129.816 38.791V40.4252H127.857V42.6904H129.816V52.2331H132.627V42.6904H136.797V48.7546C136.797 51.2521 137.975 52.5178 140.299 52.5178C140.681 52.5178 141.082 52.473 141.493 52.3855C141.91 52.2955 142.195 52.2057 142.362 52.1097L142.399 52.0878V49.8017L142.285 49.8773C142.132 49.979 141.942 50.0621 141.719 50.1239C141.496 50.1868 141.309 50.2184 141.164 50.2184C140.62 50.2184 140.217 50.0717 139.967 49.7823C139.715 49.4902 139.586 48.9795 139.586 48.2651V42.6904H142.399ZM121.578 50.2187C120.557 50.2187 119.753 49.8803 119.186 49.2137C118.615 48.5438 118.326 47.5886 118.326 46.3751C118.326 45.123 118.615 44.1431 119.186 43.4613C119.753 42.784 120.55 42.4402 121.555 42.4402C122.53 42.4402 123.306 42.7685 123.862 43.4165C124.421 44.0679 124.704 45.04 124.704 46.3067C124.704 47.5889 124.438 48.5738 123.912 49.2327C123.39 49.8866 122.604 50.2187 121.578 50.2187ZM121.703 40.1408C119.756 40.1408 118.209 40.7113 117.107 41.8365C116.005 42.9619 115.446 44.5192 115.446 46.4657C115.446 48.3144 115.991 49.8015 117.067 50.8848C118.143 51.9686 119.607 52.5175 121.418 52.5175C123.306 52.5175 124.821 51.939 125.923 50.7982C127.025 49.6587 127.584 48.1161 127.584 46.2151C127.584 44.3374 127.06 42.8393 126.026 41.7632C124.992 40.6865 123.537 40.1408 121.703 40.1408ZM110.913 40.1408C109.588 40.1408 108.493 40.4796 107.656 41.1475C106.814 41.8195 106.387 42.7007 106.387 43.7672C106.387 44.3215 106.479 44.8139 106.66 45.2315C106.843 45.6506 107.125 46.0195 107.5 46.3291C107.873 46.6362 108.448 46.9579 109.21 47.2853C109.85 47.5488 110.328 47.7717 110.631 47.9474C110.927 48.1195 111.138 48.2926 111.257 48.4612C111.372 48.6262 111.431 48.8519 111.431 49.1305C111.431 49.9238 110.837 50.3098 109.614 50.3098C109.161 50.3098 108.644 50.2151 108.077 50.0285C107.515 49.8447 106.984 49.5755 106.503 49.2303L106.386 49.1466V51.8537L106.429 51.8736C106.827 52.0573 107.329 52.2121 107.92 52.334C108.51 52.456 109.046 52.518 109.512 52.518C110.949 52.518 112.106 52.1776 112.951 51.5057C113.801 50.8291 114.231 49.9271 114.231 48.8238C114.231 48.0278 114 47.3453 113.543 46.7948C113.089 46.2489 112.301 45.7476 111.202 45.3045C110.327 44.9532 109.766 44.6615 109.535 44.4376C109.311 44.2213 109.198 43.9154 109.198 43.5281C109.198 43.1847 109.338 42.9096 109.625 42.6868C109.914 42.4629 110.317 42.349 110.822 42.349C111.29 42.349 111.769 42.423 112.246 42.568C112.722 42.7131 113.141 42.9073 113.49 43.1449L113.605 43.2234V40.6555L113.561 40.6366C113.239 40.4984 112.814 40.3801 112.298 40.2842C111.784 40.1889 111.318 40.1408 110.913 40.1408ZM99.0566 50.2187C98.0363 50.2187 97.2314 49.8803 96.6645 49.2137C96.0938 48.5438 95.8052 47.5889 95.8052 46.3751C95.8052 45.123 96.0942 44.1431 96.6651 43.4613C97.232 42.784 98.0288 42.4402 99.034 42.4402C100.009 42.4402 100.785 42.7685 101.341 43.4165C101.9 44.0679 102.183 45.04 102.183 46.3067C102.183 47.5889 101.916 48.5738 101.39 49.2327C100.868 49.8866 100.083 50.2187 99.0566 50.2187ZM99.1819 40.1408C97.2344 40.1408 95.6877 40.7113 94.5857 41.8365C93.4838 42.9619 92.9247 44.5192 92.9247 46.4657C92.9247 48.3152 93.4705 49.8015 94.5462 50.8848C95.622 51.9686 97.0858 52.5175 98.8971 52.5175C100.784 52.5175 102.3 51.939 103.402 50.7982C104.504 49.6587 105.063 48.1161 105.063 46.2151C105.063 44.3374 104.539 42.8393 103.505 41.7632C102.47 40.6865 101.016 40.1408 99.1819 40.1408ZM88.6566 42.4701V40.4252H85.8791V52.2328H88.6566V46.1928C88.6566 45.1657 88.8895 44.322 89.349 43.6847C89.8026 43.055 90.4072 42.7359 91.1453 42.7359C91.3954 42.7359 91.6763 42.7771 91.9804 42.8587C92.2814 42.9398 92.4995 43.0279 92.6281 43.1206L92.7448 43.2052V40.4051L92.6998 40.3858C92.4412 40.2759 92.0752 40.2204 91.6122 40.2204C90.9143 40.2204 90.2897 40.4447 89.7547 40.8863C89.285 41.2744 88.9457 41.8065 88.6861 42.4701H88.6566ZM80.9052 40.1408C79.6309 40.1408 78.4944 40.414 77.5276 40.9527C76.5589 41.4925 75.8097 42.2633 75.3 43.2434C74.7925 44.2211 74.5348 45.3631 74.5348 46.6367C74.5348 47.7524 74.7847 48.7762 75.2784 49.6785C75.7725 50.5823 76.4717 51.2894 77.3568 51.7798C78.2407 52.2696 79.2622 52.5179 80.3933 52.5179C81.7133 52.5179 82.8402 52.254 83.7438 51.7336L83.7803 51.7126V49.168L83.6636 49.2532C83.2543 49.5514 82.7969 49.7894 82.3047 49.9608C81.8138 50.1321 81.3663 50.2187 80.9738 50.2187C79.884 50.2187 79.0091 49.8777 78.374 49.2054C77.7376 48.5322 77.4149 47.5869 77.4149 46.3974C77.4149 45.2004 77.7514 44.2308 78.4146 43.5154C79.0758 42.802 79.9524 42.4402 81.0197 42.4402C81.9326 42.4402 82.8222 42.7493 83.6638 43.3599L83.7803 43.4445V40.7633L83.7427 40.7421C83.426 40.5648 82.994 40.4184 82.4577 40.3074C81.9237 40.1966 81.4014 40.1408 80.9052 40.1408ZM72.6219 40.4254H69.8445V52.2328H72.6219V40.4254ZM71.2616 35.3953C70.8045 35.3953 70.4058 35.5509 70.0782 35.8593C69.7493 36.1686 69.5824 36.5579 69.5824 37.0174C69.5824 37.4697 69.7473 37.852 70.0731 38.153C70.3968 38.4531 70.7967 38.6053 71.2617 38.6053C71.7266 38.6053 72.128 38.4531 72.4556 38.1535C72.7853 37.852 72.9525 37.4698 72.9525 37.0174C72.9525 36.574 72.7898 36.1886 72.4692 35.8718C72.1489 35.5555 71.7424 35.3953 71.2616 35.3953ZM64.3316 39.5542V52.2328H67.1662V35.7568H63.243L58.2565 47.9947L53.4173 35.7568H49.3345V52.2327H51.9982V39.553H52.0896L57.1997 52.2328H59.2099L64.2402 39.5542H64.3316Z" fill="#706D6E"/>
<path d="M26.6662 43.3171H13.6001V30.251H26.6662V43.3171Z" fill="#F1511B"/>
<path d="M41.093 43.3171H28.0272V30.251H41.093V43.3171Z" fill="#80CC28"/>
<path d="M26.6658 57.7485H13.6001V44.6826H26.6658V57.7485Z" fill="#00ADEF"/>
<path d="M41.093 57.7485H28.0272V44.6826H41.093V57.7485Z" fill="#FBBC09"/>
</svg>
