<svg width="156" height="88" viewBox="0 0 156 88" fill="none" xmlns="http://www.w3.org/2000/svg">
<rect x="0.5" width="155" height="88" rx="8" fill="white"/>
<path fill-rule="evenodd" clip-rule="evenodd" d="M57.831 52.1582L59.2288 48.9102C60.7385 50.0392 62.75 50.626 64.7347 50.626C66.1996 50.626 67.127 50.0616 67.127 49.2059C67.1046 46.8136 58.3507 48.6862 58.2835 42.6875C58.2611 39.6411 60.967 37.2936 64.8019 37.2936C67.0822 37.2936 69.358 37.8581 70.9843 39.1438L69.6761 42.459C68.1888 41.5093 66.3385 40.8328 64.5779 40.8328C63.3817 40.8328 62.5932 41.3973 62.5932 42.1185C62.6156 44.4661 71.4368 43.1803 71.5264 48.9102C71.5264 52.0238 68.8876 54.2145 65.0976 54.2145C62.32 54.21 59.7708 53.556 57.831 52.1582ZM111.506 47.7365C110.807 48.955 109.499 49.7883 107.985 49.7883C105.749 49.7883 103.948 47.9829 103.948 45.7518C103.948 43.5208 105.754 41.7153 107.985 41.7153C109.494 41.7153 110.807 42.5486 111.506 43.7672L115.363 41.6257C113.921 39.0542 111.143 37.2936 107.985 37.2936C103.312 37.2936 99.5219 41.0837 99.5219 45.7563C99.5219 50.4289 103.312 54.219 107.985 54.219C111.165 54.219 113.921 52.4808 115.363 49.8868L111.506 47.7365ZM73.4662 30.2734H78.2956V53.8964H73.4662V30.2734ZM117.258 30.2734V53.8964H122.088V46.8091L127.818 53.8964H134L126.711 45.4785L133.458 37.6251H127.544L122.083 44.1435V30.2734H117.258Z" fill="black"/>
<path d="M92.6451 47.7812C91.9463 48.9326 90.5037 49.7882 88.8775 49.7882C86.6419 49.7882 84.841 47.9828 84.841 45.7518C84.841 43.5207 86.6464 41.7153 88.8775 41.7153C90.5037 41.7153 91.9463 42.6158 92.6451 43.7895V47.7812ZM92.6451 37.6295V39.547C91.8567 38.2164 89.8944 37.2891 87.8381 37.2891C83.5955 37.2891 80.2579 41.0343 80.2579 45.7294C80.2579 50.4244 83.5955 54.2145 87.8381 54.2145C89.8899 54.2145 91.8522 53.2916 92.6451 51.9566V53.874H97.4746V37.6295H92.6451Z" fill="black"/>
<path fill-rule="evenodd" clip-rule="evenodd" d="M27.9808 47.759C27.9808 49.4076 26.6502 50.7382 25.0016 50.7382C23.353 50.7382 22.0224 49.4032 22.0224 47.759C22.0224 46.1148 23.353 44.7798 25.0016 44.7798H27.9808V47.759ZM29.4682 47.759C29.4682 46.1103 30.7987 44.7798 32.4474 44.7798C34.096 44.7798 35.4266 46.1103 35.4266 47.759V55.2048C35.4266 56.8534 34.096 58.184 32.4474 58.184C30.7987 58.184 29.4682 56.8534 29.4682 55.2048V47.759Z" fill="#E01E5A"/>
<path fill-rule="evenodd" clip-rule="evenodd" d="M32.4474 35.8017C30.7987 35.8017 29.4682 34.4711 29.4682 32.8225C29.4682 31.1738 30.7987 29.8433 32.4474 29.8433C34.096 29.8433 35.4266 31.1738 35.4266 32.8225V35.8017H32.4474ZM32.4474 37.3114C34.096 37.3114 35.4266 38.642 35.4266 40.2906C35.4266 41.9393 34.096 43.2699 32.4474 43.2699H24.9792C23.3306 43.2699 22 41.9348 22 40.2906C22 38.6465 23.3306 37.3114 24.9792 37.3114H32.4474Z" fill="#36C5F0"/>
<path fill-rule="evenodd" clip-rule="evenodd" d="M44.3821 40.2906C44.3821 38.642 45.7127 37.3114 47.3613 37.3114C49.01 37.3114 50.3405 38.642 50.3405 40.2906C50.3405 41.9393 49.01 43.2699 47.3613 43.2699H44.3821V40.2906ZM42.8948 40.2906C42.8948 41.9393 41.5642 43.2699 39.9156 43.2699C38.267 43.2699 36.9364 41.9393 36.9364 40.2906V32.8225C36.9364 31.1738 38.267 29.8433 39.9156 29.8433C41.5642 29.8433 42.8948 31.1738 42.8948 32.8225V40.2906Z" fill="#2EB67D"/>
<path fill-rule="evenodd" clip-rule="evenodd" d="M39.9156 52.2256C41.5642 52.2256 42.8948 53.5561 42.8948 55.2048C42.8948 56.8534 41.5642 58.184 39.9156 58.184C38.267 58.184 36.9364 56.8534 36.9364 55.2048V52.2256H39.9156ZM39.9156 50.7382C38.267 50.7382 36.9364 49.4076 36.9364 47.759C36.9364 46.1103 38.267 44.7798 39.9156 44.7798H47.3837C49.0324 44.7798 50.3629 46.1103 50.3629 47.759C50.3629 49.4076 49.0324 50.7382 47.3837 50.7382H39.9156Z" fill="#ECB22E"/>
</svg>
