<svg width="111" height="44" viewBox="0 0 111 44" fill="none" xmlns="http://www.w3.org/2000/svg">
<rect width="111" height="44" rx="5" fill="#1DA1F2" fill-opacity="0.08"/>
<g clip-path="url(#clip0_297_5114)">
<path d="M32 15.7988C31.2563 16.125 30.4637 16.3412 29.6375 16.4462C30.4875 15.9388 31.1363 15.1412 31.4412 14.18C30.6488 14.6525 29.7738 14.9863 28.8412 15.1725C28.0887 14.3713 27.0162 13.875 25.8462 13.875C23.5763 13.875 21.7487 15.7175 21.7487 17.9763C21.7487 18.3012 21.7762 18.6137 21.8438 18.9112C18.435 18.745 15.4188 17.1113 13.3925 14.6225C13.0387 15.2363 12.8313 15.9388 12.8313 16.695C12.8313 18.115 13.5625 19.3737 14.6525 20.1025C13.9937 20.09 13.3475 19.8988 12.8 19.5975C12.8 19.61 12.8 19.6262 12.8 19.6425C12.8 21.635 14.2212 23.29 16.085 23.6712C15.7512 23.7625 15.3875 23.8062 15.01 23.8062C14.7475 23.8062 14.4825 23.7913 14.2337 23.7362C14.765 25.36 16.2725 26.5538 18.065 26.5925C16.67 27.6838 14.8988 28.3412 12.9813 28.3412C12.645 28.3412 12.3225 28.3263 12 28.285C13.8162 29.4563 15.9688 30.125 18.29 30.125C25.835 30.125 29.96 23.875 29.96 18.4575C29.96 18.2762 29.9538 18.1013 29.945 17.9275C30.7588 17.35 31.4425 16.6288 32 15.7988Z" fill="#1DA1F2"/>
</g>
<line opacity="0.15" x1="42.5" y1="12" x2="42.5" y2="32" stroke="#061C3D"/>
<path d="M55.234 27V18.656H52.49V17.2H59.574V18.656H56.746V27H55.234ZM61.896 27L59.39 19.65L60.846 19.636L62.638 25.138L62.316 25.11L64.262 20.812H65.13L67.09 25.124L66.712 25.152L68.518 19.65H69.974L67.496 27H66.502L64.458 22.324L64.78 22.366L62.876 27H61.896ZM71.5253 27V19.65H72.9673V27H71.5253ZM72.2253 18.026C71.9173 18.026 71.6793 17.9467 71.5113 17.788C71.3433 17.6293 71.2593 17.4053 71.2593 17.116C71.2593 16.8453 71.3433 16.626 71.5113 16.458C71.6886 16.29 71.9266 16.206 72.2253 16.206C72.5333 16.206 72.7713 16.2853 72.9393 16.444C73.1073 16.6027 73.1913 16.8267 73.1913 17.116C73.1913 17.3867 73.1026 17.606 72.9253 17.774C72.7573 17.942 72.524 18.026 72.2253 18.026ZM76.0938 27V17.774H77.5358V27H76.0938ZM74.5678 21.05V19.65H79.2438V21.05H74.5678ZM81.4668 27V17.774H82.9088V27H81.4668ZM79.9408 21.05V19.65H84.6168V21.05H79.9408ZM89.2915 27.14C88.5355 27.14 87.8635 26.9813 87.2755 26.664C86.6968 26.3373 86.2395 25.894 85.9035 25.334C85.5768 24.774 85.4135 24.13 85.4135 23.402C85.4135 22.8233 85.5068 22.296 85.6935 21.82C85.8802 21.344 86.1368 20.9333 86.4635 20.588C86.7995 20.2333 87.1962 19.9627 87.6535 19.776C88.1202 19.58 88.6242 19.482 89.1655 19.482C89.6415 19.482 90.0848 19.5753 90.4955 19.762C90.9062 19.9393 91.2608 20.1867 91.5595 20.504C91.8675 20.8213 92.1008 21.1993 92.2595 21.638C92.4275 22.0673 92.5068 22.5387 92.4975 23.052L92.4835 23.668H86.4775L86.1555 22.52H91.2375L91.0275 22.758V22.422C90.9995 22.114 90.8968 21.8387 90.7195 21.596C90.5422 21.3533 90.3182 21.162 90.0475 21.022C89.7768 20.882 89.4828 20.812 89.1655 20.812C88.6615 20.812 88.2368 20.91 87.8915 21.106C87.5462 21.2927 87.2848 21.5727 87.1075 21.946C86.9302 22.31 86.8415 22.7627 86.8415 23.304C86.8415 23.8173 86.9488 24.2653 87.1635 24.648C87.3782 25.0213 87.6815 25.3107 88.0735 25.516C88.4655 25.7213 88.9182 25.824 89.4315 25.824C89.7955 25.824 90.1315 25.7633 90.4395 25.642C90.7568 25.5207 91.0975 25.3013 91.4615 24.984L92.1895 26.006C91.9655 26.23 91.6902 26.426 91.3635 26.594C91.0462 26.762 90.7055 26.8973 90.3415 27C89.9868 27.0933 89.6368 27.14 89.2915 27.14ZM94.0646 27V19.65H95.5206V21.96L95.3806 21.4C95.4833 21.0453 95.656 20.7233 95.8986 20.434C96.1506 20.1447 96.4353 19.916 96.7526 19.748C97.0793 19.58 97.4153 19.496 97.7606 19.496C97.9193 19.496 98.0686 19.51 98.2086 19.538C98.358 19.566 98.4746 19.5987 98.5586 19.636L98.1806 21.204C98.0686 21.1573 97.9426 21.12 97.8026 21.092C97.672 21.0547 97.5413 21.036 97.4106 21.036C97.1586 21.036 96.916 21.0873 96.6826 21.19C96.4586 21.2833 96.258 21.4187 96.0806 21.596C95.9126 21.764 95.7773 21.9647 95.6746 22.198C95.572 22.422 95.5206 22.6693 95.5206 22.94V27H94.0646Z" fill="#061C3D"/>
<defs>
<clipPath id="clip0_297_5114">
<rect width="20" height="20" fill="white" transform="translate(12 12)"/>
</clipPath>
</defs>
</svg>
