<svg width="156" height="88" viewBox="0 0 156 88" fill="none" xmlns="http://www.w3.org/2000/svg">
<rect x="0.5" width="155" height="88" rx="8" fill="white"/>
<path fill-rule="evenodd" clip-rule="evenodd" d="M53.8158 32.243C55.3557 32.6578 56.566 33.8681 56.9751 35.4024C57.7196 38.1867 57.7196 43.9999 57.7196 43.9999C57.7196 43.9999 57.7196 49.813 56.9751 52.5973C56.5603 54.1372 55.3501 55.3476 53.8158 55.7567C51.0314 56.5012 39.8598 56.5012 39.8598 56.5012C39.8598 56.5012 28.6939 56.5012 25.9038 55.7567C24.364 55.3419 23.1536 54.1316 22.7445 52.5973C22 49.813 22 43.9998 22 43.9998C22 43.9998 22 38.1867 22.7445 35.4024C23.1593 33.8625 24.3697 32.6521 25.9038 32.243C28.6939 31.4985 39.8598 31.4985 39.8598 31.4985C39.8598 31.4985 51.0314 31.4985 53.8158 32.243ZM45.5704 43.9998L36.2911 49.3584V38.6414L45.5704 43.9998Z" fill="#FF0000"/>
<path fill-rule="evenodd" clip-rule="evenodd" d="M73.8468 54.245C73.1421 53.7677 72.6364 53.029 72.341 52.0233C72.0454 51.0175 71.892 49.6821 71.892 48.0114V45.7385C71.892 44.0509 72.0624 42.6985 72.4034 41.6755C72.7444 40.6528 73.2786 39.9084 74.0001 39.4424C74.7218 38.9765 75.6709 38.7378 76.847 38.7378C78.0063 38.7378 78.9326 38.9765 79.6314 39.4538C80.3303 39.931 80.8418 40.6755 81.1657 41.6869C81.4896 42.6985 81.6488 44.0509 81.6488 45.7328V48.0058C81.6488 49.6764 81.4896 51.0175 81.177 52.0289C80.8645 53.0403 80.3532 53.7848 79.6428 54.2507C78.9381 54.7166 77.9778 54.9555 76.7674 54.9555C75.5287 54.961 74.5514 54.7223 73.8468 54.245ZM77.8073 51.7903C78.0006 51.2788 78.1029 50.4435 78.1029 49.2901V44.4089C78.1029 43.2837 78.0063 42.4655 77.8073 41.9427C77.6143 41.4256 77.2676 41.1642 76.7732 41.1642C76.2959 41.1642 75.9606 41.4256 75.7617 41.9427C75.5685 42.4597 75.4663 43.2837 75.4663 44.4089V49.2901C75.4663 50.4492 75.5572 51.2846 75.7447 51.7903C75.9322 52.3017 76.2732 52.5574 76.7676 52.5574C77.2676 52.5574 77.6085 52.3017 77.8073 51.7903ZM128.097 48.0512V48.8412C128.097 49.8469 128.125 50.5969 128.188 51.1026C128.244 51.6028 128.369 51.9721 128.557 52.1995C128.744 52.4267 129.034 52.5461 129.426 52.5461C129.955 52.5461 130.318 52.3415 130.512 51.9323C130.705 51.5232 130.813 50.8413 130.83 49.8867L133.87 50.0629C133.887 50.1991 133.893 50.3867 133.893 50.6253C133.893 52.0744 133.495 53.154 132.705 53.8699C131.915 54.5859 130.796 54.9439 129.347 54.9439C127.608 54.9439 126.392 54.3984 125.693 53.3074C124.994 52.2164 124.647 50.5344 124.647 48.2502V45.5169C124.647 43.1644 125.011 41.4539 125.733 40.3688C126.454 39.2891 127.693 38.7491 129.449 38.7491C130.659 38.7491 131.586 38.9709 132.233 39.414C132.881 39.8572 133.336 40.5447 133.603 41.4824C133.864 42.42 134.001 43.7157 134.001 45.3635V48.0456H128.097V48.0512ZM128.545 41.4596C128.369 41.6814 128.25 42.0449 128.187 42.5451C128.125 43.045 128.097 43.8123 128.097 44.8293V45.9545H130.676V44.8293C130.676 43.8234 130.642 43.0621 130.574 42.5451C130.506 42.0279 130.381 41.6586 130.205 41.4483C130.028 41.2381 129.75 41.1301 129.375 41.1301C129 41.1244 128.722 41.2381 128.545 41.4596ZM65.2663 47.7558L61.2547 33.2714H64.7549L66.1585 39.8346C66.5165 41.4541 66.7779 42.8292 66.9484 43.9713H67.0506C67.1699 43.153 67.4313 41.7836 67.8405 39.8572L69.2951 33.2656H72.7955L68.7383 47.7558V54.7053H65.2663V47.7558ZM93.0305 39.0447V54.6996H90.2745L89.9676 52.7847H89.8938C89.1437 54.2337 88.0186 54.9554 86.5241 54.9554C85.4843 54.9554 84.7171 54.6144 84.2229 53.9325C83.7285 53.2506 83.4841 52.1881 83.4841 50.7391V39.0447H87.0072V50.5401C87.0072 51.239 87.0811 51.7392 87.2345 52.0346C87.388 52.3301 87.6436 52.4835 88.0016 52.4835C88.3085 52.4835 88.6039 52.3925 88.8823 52.2051C89.1607 52.0176 89.371 51.7788 89.5074 51.4891V39.0446L93.0305 39.0447ZM111.112 39.0447V54.6996H108.356L108.049 52.7847H107.975C107.225 54.2337 106.1 54.9554 104.605 54.9554C103.566 54.9554 102.799 54.6144 102.304 53.9325C101.81 53.2506 101.565 52.1881 101.565 50.7391V39.0447H105.089V50.5401C105.089 51.239 105.162 51.7392 105.316 52.0346C105.469 52.3301 105.725 52.4835 106.083 52.4835C106.39 52.4835 106.685 52.3925 106.964 52.2051C107.242 52.0176 107.452 51.7788 107.589 51.4891V39.0446L111.112 39.0447Z" fill="#282828"/>
<path fill-rule="evenodd" clip-rule="evenodd" d="M102.611 36.1069H99.1106V54.6995H95.6613V36.1069H92.161V33.2714H102.605V36.1069H102.611ZM122.778 41.5505C122.562 40.5618 122.221 39.8458 121.743 39.4027C121.266 38.9594 120.613 38.7378 119.777 38.7378C119.13 38.7378 118.527 38.9196 117.965 39.289C117.402 39.6526 116.97 40.1357 116.663 40.7323H116.635V32.4814H113.237V54.7053H116.146L116.504 53.2222H116.578C116.851 53.7507 117.26 54.1655 117.806 54.4722C118.351 54.7791 118.954 54.9326 119.618 54.9326C120.812 54.9326 121.687 54.3813 122.249 53.2846C122.812 52.188 123.09 50.4719 123.09 48.1365V45.6589C123.096 43.9087 122.988 42.5393 122.778 41.5506V41.5505ZM119.544 47.9375C119.544 49.0797 119.499 49.9718 119.402 50.6196C119.311 51.2675 119.152 51.7277 118.931 52.0005C118.709 52.2732 118.414 52.4096 118.039 52.4096C117.749 52.4096 117.482 52.3415 117.232 52.205C116.987 52.0686 116.783 51.8641 116.629 51.5913V42.6984C116.749 42.2722 116.953 41.9256 117.243 41.653C117.533 41.3801 117.845 41.2437 118.186 41.2437C118.544 41.2437 118.823 41.3857 119.016 41.6641C119.209 41.9427 119.346 42.4199 119.425 43.0791C119.499 43.7439 119.539 44.6872 119.539 45.9145V47.9375H119.544Z" fill="#282828"/>
</svg>
